<svg width="264" height="294" viewBox="0 0 264 294" fill="none" xmlns="http://www.w3.org/2000/svg">
<path d="M82.349 106C97.5546 119.954 139.596 137.295 163.417 166.792C233.22 230.948 234.68 250.122 238.048 259.548" stroke="#DFA89C" stroke-width="5" stroke-linecap="round"/>
<path d="M17.7435 54.8535C17.3892 54.7637 17.0164 54.6949 16.5409 54.6072L16.496 54.5989C16.0309 54.513 15.4633 54.4075 14.8918 54.2528C10.6363 53.1012 7.45714 58.15 10.3346 61.49L10.5336 61.721L8.63959 63.3527L10.5336 61.721C10.6265 61.8287 10.7074 61.9144 10.7945 61.9975C12.5543 63.6783 25.3087 75.7047 44.8026 90.093C59.7501 101.126 78.9548 112.605 88.8421 118.337C91.3915 119.815 94.6471 119.098 96.3841 116.655C97.9414 114.465 97.7397 111.666 95.975 109.898C89.8223 103.734 76.7136 91.7001 54.5683 76.3343C29.7034 59.0815 20.4716 55.5449 17.7435 54.8535Z" stroke="#DFA89C" stroke-width="5"/>
<path d="M145.13 82.728C144.985 82.3947 144.779 82.038 144.484 81.5606C144.443 81.4956 144.401 81.4271 144.356 81.3555C144.105 80.9518 143.792 80.4501 143.527 79.9395C141.727 76.4787 136.803 76.514 135.075 79.8811C134.972 80.0816 134.893 80.2715 134.834 80.4526C134.146 82.5866 131.227 92.1806 129.769 105.493C128.763 114.681 129.138 125.63 129.598 132.87C129.803 136.095 132.384 138.669 135.715 138.933C138.476 139.152 140.796 137.707 141.564 135.417C143.358 130.071 145.767 120.623 146.592 106.802C147.555 90.6482 145.965 84.6469 145.13 82.728Z" stroke="#DFA89C" stroke-width="5"/>
<path d="M165.183 100.837C164.998 100.524 164.748 100.196 164.396 99.7593C164.348 99.6999 164.297 99.6372 164.244 99.5717C163.944 99.2026 163.571 98.7437 163.244 98.2702C161.026 95.0609 156.145 95.7101 154.851 99.2663C154.774 99.4781 154.719 99.6764 154.683 99.8634C154.267 102.067 152.567 111.95 152.781 125.34C152.929 134.581 154.666 145.398 156.025 152.525C156.63 155.699 159.512 157.931 162.85 157.778C165.618 157.651 167.739 155.927 168.216 153.559C169.329 148.032 170.541 138.357 169.635 124.54C168.577 108.393 166.251 102.637 165.183 100.837Z" stroke="#DFA89C" stroke-width="5"/>
<path d="M80.4552 158.441C80.2132 158.712 79.9758 159.049 79.6656 159.517C79.6235 159.58 79.5791 159.648 79.5327 159.718C79.2713 160.116 78.9464 160.609 78.5938 161.064C76.2038 164.147 78.2965 168.605 82.0775 168.765C82.3027 168.774 82.5084 168.767 82.6974 168.744C84.9234 168.476 94.8587 167.113 107.56 162.866C116.325 159.934 126.112 155.012 132.496 151.565C135.339 150.029 136.597 146.608 135.443 143.472C134.486 140.872 132.203 139.37 129.801 139.63C124.196 140.238 114.606 142.004 101.708 147.039C86.6339 152.924 81.8487 156.88 80.4552 158.441Z" stroke="#DFA89C" stroke-width="5"/>
<path d="M102.259 183.02C102.041 183.311 101.834 183.667 101.565 184.16C101.529 184.227 101.491 184.298 101.45 184.372C101.224 184.791 100.943 185.311 100.631 185.794C98.5163 189.072 100.986 193.332 104.767 193.165C104.992 193.155 105.196 193.13 105.382 193.091C107.577 192.632 117.358 190.416 129.644 185.088C138.124 181.411 147.45 175.662 153.512 171.677C156.212 169.902 157.17 166.385 155.749 163.36C154.572 160.852 152.167 159.553 149.797 160.02C144.265 161.109 134.864 163.696 122.449 169.826C107.939 176.99 103.513 181.344 102.259 183.02Z" stroke="#DFA89C" stroke-width="5"/>
<path d="M134.434 197.485C134.269 197.79 134.048 198.199 133.804 198.577C132.536 200.542 134.031 203.06 136.25 202.962L136.361 205.459L136.25 202.962C136.385 202.956 136.498 202.941 136.595 202.921C138.177 202.59 145.309 200.975 154.273 197.088C160.442 194.413 167.247 190.22 171.688 187.3C173.381 186.187 174.002 183.969 173.094 182.035C172.339 180.427 170.851 179.679 169.456 179.954C165.453 180.742 158.609 182.622 149.551 187.094C138.926 192.34 135.795 195.479 134.972 196.579L132.97 195.082L134.972 196.579C134.844 196.751 134.711 196.976 134.515 197.336C134.49 197.382 134.463 197.432 134.434 197.485Z" stroke="#DFA89C" stroke-width="5"/>
<path d="M185.519 140.304C185.364 139.993 185.156 139.578 184.986 139.16C184.106 136.994 181.187 136.771 179.992 138.645L177.884 137.3L179.992 138.645C179.92 138.758 179.867 138.859 179.827 138.95C179.19 140.435 176.415 147.201 174.448 156.771C173.094 163.357 172.618 171.336 172.457 176.649C172.395 178.674 173.855 180.456 175.959 180.824C177.709 181.129 179.176 180.341 179.753 179.042C181.407 175.312 183.799 168.63 185.341 158.646C187.15 146.936 186.379 142.57 185.951 141.264L188.327 140.486L185.951 141.264C185.884 141.06 185.777 140.822 185.595 140.455C185.571 140.408 185.546 140.358 185.519 140.304Z" stroke="#DFA89C" stroke-width="5"/>
<path d="M113.712 89.586C113.589 89.4532 113.415 89.3033 113.112 89.0659C113.069 89.0318 113.02 88.9942 112.967 88.9535C112.71 88.7543 112.357 88.4811 112.041 88.1944L111.91 88.076C110.424 86.7301 108.038 87.4928 107.608 89.4513L105.166 88.9151L107.608 89.4513C107.578 89.5876 107.565 89.6951 107.561 89.7867C107.509 91.2636 107.41 97.3875 108.928 105.345C110.165 111.831 113.107 119.384 114.746 123.291C114.824 123.475 115.051 123.61 115.322 123.51C115.349 123.5 115.368 123.491 115.378 123.485C116.827 121.613 121.761 114.206 118.98 103.044C116.606 93.5136 114.489 90.429 113.712 89.586Z" stroke="#DFA89C" stroke-width="5"/>
<path d="M112.701 132.135C112.831 132.01 112.977 131.833 113.208 131.524C113.241 131.48 113.277 131.43 113.317 131.377C113.51 131.115 113.775 130.756 114.055 130.433L115.886 132.017L114.055 130.433L114.17 130.3C115.482 128.783 114.665 126.415 112.697 126.03L113.178 123.577L112.697 126.03C112.56 126.003 112.453 125.993 112.361 125.991C110.883 125.972 104.759 126.012 96.8381 127.711C90.3818 129.095 82.8971 132.208 79.0285 133.936C78.8461 134.017 78.7163 134.247 78.8227 134.516C78.8335 134.543 78.8429 134.561 78.849 134.572C80.7538 135.978 88.2709 140.742 99.3663 137.708C108.841 135.118 111.876 132.932 112.701 132.135Z" stroke="#DFA89C" stroke-width="5"/>
</svg>
