<svg width="102" height="102" viewBox="0 0 102 102" fill="none" xmlns="http://www.w3.org/2000/svg">
<path d="M3.20855 33.0608C2.78631 34.1937 2.39966 35.3569 2.05959 36.5175L5.27119 37.4587C5.58884 36.3744 5.94961 35.2885 6.34403 34.2306L3.20855 33.0608Z" fill="#DFA89C"/>
<path d="M6.23789 26.4332C5.65673 27.4958 5.10726 28.5921 4.60438 29.6921L7.648 31.0843C8.11767 30.0571 8.63069 29.0326 9.17369 28.0399L6.23789 26.4332Z" fill="#DFA89C"/>
<path d="M3.4755 54.2932L0.137306 54.5292C0.222486 55.7364 0.352089 56.9545 0.522664 58.1498L3.83562 57.6772C3.67626 56.56 3.55507 55.4216 3.4755 54.2932Z" fill="#DFA89C"/>
<path d="M4.43569 61.0256L1.16499 61.7347C1.42118 62.917 1.7233 64.1046 2.06337 65.2647L5.27476 64.3224C4.95733 63.2393 4.67484 62.1301 4.43569 61.0256Z" fill="#DFA89C"/>
<path d="M0.131544 47.2535C0.0472265 48.4542 0 49.6761 0 50.8845V50.8906L3.34984 50.8845C3.34984 49.7539 3.39318 48.6113 3.47211 47.4884L0.131544 47.2535Z" fill="#DFA89C"/>
<path d="M10.1801 20.3096C9.45488 21.2771 8.7549 22.2834 8.1002 23.3003L10.9137 25.113C11.5257 24.1628 12.1796 23.2222 12.8576 22.3179L10.1801 20.3096Z" fill="#DFA89C"/>
<path d="M47.3591 0C46.1515 0.085425 44.9337 0.215288 43.7399 0.385706L44.2124 3.69981C45.3281 3.54039 46.4663 3.41937 47.5952 3.33934L47.3591 0Z" fill="#DFA89C"/>
<path d="M33.172 3.07791C32.0409 3.50029 30.9105 3.96926 29.8122 4.47189L31.2044 7.51634C32.23 7.04693 33.2858 6.60881 34.3423 6.21426L33.172 3.07791Z" fill="#DFA89C"/>
<path d="M40.1558 1.02857C38.9727 1.28527 37.7856 1.58771 36.6274 1.92747L37.5693 5.13997C38.6512 4.82243 39.7598 4.53984 40.865 4.30017L40.1558 1.02857Z" fill="#DFA89C"/>
<path d="M6.34869 67.5504L3.21321 68.7207C3.63501 69.8512 4.10382 70.9821 4.60671 72.0818L7.65011 70.6893C7.18044 69.6625 6.74268 68.6063 6.34869 67.5504Z" fill="#DFA89C"/>
<path d="M20.4449 10.0421C19.478 10.767 18.5248 11.536 17.6122 12.3281L19.8047 14.8574C20.658 14.1173 21.5486 13.3985 22.4521 12.7207L20.4449 10.0421Z" fill="#DFA89C"/>
<path d="M26.5605 6.10357C25.5012 6.68364 24.4489 7.30944 23.433 7.96351L25.2446 10.7782C26.1939 10.1669 27.177 9.58205 28.167 9.04016L26.5605 6.10357Z" fill="#DFA89C"/>
<path d="M14.9478 14.81C14.0932 15.6647 13.2582 16.5612 12.4662 17.4748L14.9942 19.6684C15.7347 18.8144 16.5151 17.9763 17.3139 17.1773L14.9478 14.81Z" fill="#DFA89C"/>
<path d="M1.16234 40.0477C0.907019 41.2281 0.691158 42.4344 0.520583 43.6325L3.83376 44.1043C3.99312 42.9851 4.19475 41.8582 4.43325 40.7554L1.16234 40.0477Z" fill="#DFA89C"/>
<path d="M87.0108 82.1053C86.2703 82.9593 85.4897 83.7972 84.6907 84.5962L87.0565 86.9637C87.9111 86.1092 88.7463 85.2127 89.5386 84.2991L87.0108 82.1053Z" fill="#DFA89C"/>
<path d="M82.201 86.9156C81.3477 87.6555 80.4569 88.3743 79.5531 89.0518L81.5601 91.7307C82.5273 91.0056 83.4804 90.2368 84.3931 89.4451L82.201 86.9156Z" fill="#DFA89C"/>
<path d="M76.7601 90.9941C75.8108 91.6055 74.8275 92.1901 73.8376 92.7318L75.4436 95.6688C76.503 95.0889 77.5554 94.4633 78.5715 93.8088L76.7601 90.9941Z" fill="#DFA89C"/>
<path d="M91.0925 76.6611C90.4808 77.6111 89.8267 78.5516 89.1485 79.4562L91.8257 81.4647C92.5514 80.4968 93.2514 79.4905 93.9059 78.474L91.0925 76.6611Z" fill="#DFA89C"/>
<path d="M98.6536 50.8919C98.6536 52.0078 98.6135 53.1678 98.5341 54.2921L101.872 54.5257C101.957 53.3235 102 52.0078 102 50.8919H98.6536Z" fill="#DFA89C"/>
<path d="M70.8001 94.2554C69.7741 94.725 68.7181 95.163 67.6623 95.5571L68.8319 98.6936C69.9625 98.2717 71.0932 97.8027 72.1921 97.2999L70.8001 94.2554Z" fill="#DFA89C"/>
<path d="M98.175 57.6704C98.0155 58.7898 97.8138 59.9167 97.5751 61.0191L100.846 61.7277C101.101 60.5471 101.317 59.341 101.488 58.1429L98.175 57.6704Z" fill="#DFA89C"/>
<path d="M94.3594 70.6904C93.8892 71.7181 93.376 72.7424 92.833 73.7345L95.7686 75.3418C96.3495 74.2796 96.8992 73.1835 97.4025 72.0829L94.3594 70.6904Z" fill="#DFA89C"/>
<path d="M96.7364 64.3162C96.419 65.4004 96.058 66.4865 95.6634 67.5442L98.7988 68.7143C99.2211 67.5817 99.6079 66.4184 99.948 65.2578L96.7364 64.3162Z" fill="#DFA89C"/>
<path d="M28.1651 92.7281L26.559 95.6651C27.6217 96.2467 28.7174 96.7964 29.8165 97.2992L31.2085 94.2548C30.1818 93.7854 29.1577 93.2715 28.1651 92.7281Z" fill="#DFA89C"/>
<path d="M9.17352 73.7282L6.23772 75.3349C6.81716 76.3943 7.44275 77.447 8.09702 78.4639L10.9108 76.6516C10.2992 75.7016 9.71458 74.7179 9.17352 73.7282Z" fill="#DFA89C"/>
<path d="M12.8524 79.4448L10.1745 81.4525C10.8984 82.4189 11.6672 83.3722 12.4595 84.2864L14.9879 82.0934C14.2474 81.2391 13.5289 80.3478 12.8524 79.4448Z" fill="#DFA89C"/>
<path d="M64.4347 96.631C63.3524 96.9485 62.2435 97.2309 61.139 97.4703L61.8476 100.742C63.03 100.486 64.2173 100.184 65.3762 99.8437L64.4347 96.631Z" fill="#DFA89C"/>
<path d="M34.3536 95.5592L33.1842 98.696C34.3176 99.1186 35.4802 99.5054 36.6395 99.8454L37.5808 96.6327C36.4978 96.3155 35.412 95.9544 34.3536 95.5592Z" fill="#DFA89C"/>
<path d="M17.3069 84.5845L14.9402 86.9513C15.7948 87.8065 16.691 88.6417 17.6041 89.4341L19.797 86.9052C18.9437 86.1646 18.1059 85.3839 17.3069 84.5845Z" fill="#DFA89C"/>
<path d="M22.4449 89.0434L20.4375 91.7218C21.4062 92.4485 22.4122 93.1483 23.4272 93.8024L25.2393 90.9879C24.2907 90.3767 23.3507 89.7225 22.4449 89.0434Z" fill="#DFA89C"/>
<path d="M40.8762 97.4716L40.1683 100.744C41.3491 101 42.555 101.215 43.7521 101.386L44.2237 98.0718C43.1058 97.9123 41.9795 97.7104 40.8762 97.4716Z" fill="#DFA89C"/>
<path d="M57.7921 98.0704C56.6757 98.2296 55.538 98.3507 54.4093 98.4305L54.6452 101.77C55.8524 101.685 57.0701 101.555 58.2646 101.385L57.7921 98.0704Z" fill="#DFA89C"/>
<path d="M51.0047 98.6141C49.8741 98.6138 48.731 98.5358 47.6066 98.4568L47.3717 101.822C48.5735 101.906 49.796 102 51.0047 102H51.0075L51.0047 98.6141Z" fill="#DFA89C"/>
<path d="M58.2298 1.12347H52.8754V4.47122H58.2298V1.12347Z" fill="#DFA89C"/>
<path d="M64.6996 60.7115H61.5762V64.0592H64.6996V60.7115Z" fill="#DFA89C"/>
<path d="M68.2692 64.2822H64.6997V67.63H68.2692V64.2822Z" fill="#DFA89C"/>
<path d="M23.8725 59.1492H20.5259V62.497H23.8725V59.1492Z" fill="#DFA89C"/>
<path d="M22.0876 45.5354H18.741V48.8831H22.0876V45.5354Z" fill="#DFA89C"/>
<path d="M51.0048 12.2063C29.6848 12.2065 12.3398 29.5575 12.3398 50.8846C12.3398 72.2122 29.6851 89.5629 51.0048 89.5629C72.3246 89.5629 89.6699 72.2119 89.6699 50.8846C89.6699 29.5573 72.3246 12.2063 51.0048 12.2063ZM51.0053 15.554C53.4779 15.554 55.8916 15.8108 58.2221 16.2966L55.7482 18.0849H49.5287V21.4775L45.9471 22.6499L39.9194 19.6765L38.9235 17.6839C42.6945 16.3065 46.7635 15.554 51.0053 15.554ZM51.0048 86.2154C42.6926 86.2154 35.043 83.3263 29.0034 78.5012V74.1784L31.3253 69.416L35.9196 63.8185V57.2011L29.6697 51.4179L27.9575 50.1294L29.0034 42.1836V35.5774L31.4464 32.2749L37.5046 38.1731L48.0322 43.3374L51.3134 49.5383V58.9946L44.3733 65.8303L40.0858 78.4989L48.424 80.5894L52.8753 85.057V86.1658C52.2556 86.1983 51.6322 86.2154 51.0048 86.2154ZM56.2213 85.829V83.6729L50.1379 77.5676L44.4188 76.1339L47.2875 67.6572L54.6596 60.3959V48.7067L50.4808 40.8105L39.4564 35.4022L31.0348 27.2033L25.6568 34.4735V41.9642L24.3832 51.6396L27.4624 53.936L32.573 58.665V62.6206L28.4895 67.596L25.6568 73.4062V75.4607C19.4893 69.097 15.6862 60.4274 15.6862 50.8848C15.6862 36.8333 23.9293 24.6729 35.8318 18.9846L37.4293 22.181L45.6907 26.2559L52.8751 23.9041V21.4326H56.8307L62.3674 17.4299C65.4565 18.4829 68.3535 19.9539 70.993 21.773L63.0342 23.0999L65.0054 30.9879L61.8259 34.1683L59.6766 42.6771L68.0684 48.8834H74.5473L76.9696 54.7415V64.1402L82.1913 67.4514C77.0272 77.1401 67.4838 84.1538 56.2213 85.829ZM80.3164 62.2988V54.0764L76.7846 45.5356H69.1712L63.4711 41.32L64.8447 35.8828L68.7117 32.0148L67.1599 25.8057L74.5492 24.5737C81.7712 31.0475 86.3235 40.4436 86.3235 50.8846C86.3235 55.6704 85.3656 60.2363 83.6339 64.4027L80.3164 62.2988Z" fill="#DFA89C"/>
<path d="M60.9138 69.1657L55.864 63.859L52.8745 69.875V79.6818H62.3129L67.6143 73.8581L60.9138 69.1657ZM60.834 76.3341H56.2209V70.6611L56.7339 69.6287L58.7202 71.716L62.5783 74.4178L60.834 76.3341Z" fill="#DFA89C"/>
<path d="M49.5287 30.1362H45.9591V33.484H49.5287V30.1362Z" fill="#DFA89C"/>
<path d="M59.7915 25.0032H56.4449V28.3509H59.7915V25.0032Z" fill="#DFA89C"/>
</svg>
