<svg width="72" height="78" viewBox="0 0 72 78" fill="none" xmlns="http://www.w3.org/2000/svg">
<path d="M62.8811 57.8845H71V1.74585H1V57.9183H29.4503M49.5088 6.46854H22.7641M22.7641 9.78569H49.5088M42.8226 16.42H29.4503M42.8226 13.1029H29.4503M19.4211 33.0058H6.04873M6.04873 36.323H19.4211M19.4211 39.6401H6.04873M6.04873 42.9573H19.4211M6.04873 49.5916H12.7349M12.7349 46.2744H6.04873M52.8518 51.8041C52.14 51.7146 51.4189 51.8722 50.8108 52.2501C50.2027 52.6279 49.7451 53.2029 49.5155 53.8774C49.2687 54.5629 48.8143 55.1559 48.2147 55.5752C47.615 55.9945 46.8993 56.2196 46.1657 56.2196C45.4321 56.2196 44.7164 55.9945 44.1167 55.5752C43.517 55.1559 43.0627 54.5629 42.8159 53.8774C42.5863 53.2029 42.1286 52.6279 41.5205 52.2501C40.9124 51.8722 40.1913 51.7146 39.4795 51.8041M52.8518 39.6401C52.8518 40.9523 52.4597 42.2349 51.725 43.3259C50.9903 44.417 49.9461 45.2673 48.7244 45.7694C47.5026 46.2716 46.1583 46.4029 44.8613 46.147C43.5643 45.891 42.3729 45.2591 41.4379 44.3313C40.5028 43.4035 39.866 42.2213 39.608 40.9344C39.35 39.6475 39.4824 38.3135 39.9885 37.1013C40.4945 35.889 41.3515 34.8529 42.4511 34.1239C43.5506 33.3949 44.8433 33.0058 46.1657 33.0058C47.9384 33.0076 49.638 33.7071 50.8916 34.9509C52.1451 36.1947 52.8501 37.8811 52.8518 39.6401ZM49.5155 25.3996C49.6663 25.8206 49.9043 26.2056 50.2141 26.5298C50.5239 26.8541 50.8987 27.1103 51.3144 27.2822C51.73 27.4541 52.1774 27.5377 52.6276 27.5276C53.0778 27.5176 53.5208 27.4142 53.9283 27.224C54.5943 26.9152 55.3394 26.8155 56.0641 26.9382C56.7887 27.0609 57.4584 27.4002 57.9835 27.9106C58.5033 28.4262 58.8499 29.0886 58.9755 29.8071C59.1012 30.5257 58.9999 31.2652 58.6855 31.9244C58.492 32.329 58.3861 32.7694 58.3746 33.2171C58.3632 33.6649 58.4465 34.11 58.6191 34.5238C58.7917 34.9377 59.0498 35.311 59.3768 35.6197C59.7038 35.9285 60.0924 36.1658 60.5175 36.3163C61.2084 36.5612 61.8061 37.012 62.2287 37.607C62.6512 38.2021 62.8781 38.9122 62.8781 39.6401C62.8781 40.368 62.6512 41.0782 62.2287 41.6732C61.8061 42.2682 61.2084 42.7191 60.5175 42.9639C60.0922 43.1137 59.7033 43.3504 59.376 43.6587C59.0487 43.967 58.7902 44.34 58.6172 44.7536C58.4442 45.1672 58.3606 45.6122 58.3718 46.0599C58.383 46.5076 58.4887 46.9479 58.6822 47.3525C58.9182 47.8328 59.0397 48.3606 59.0372 48.895C59.0348 49.4293 58.9084 49.956 58.6679 50.4341C58.4275 50.9123 58.0794 51.3291 57.6505 51.6524C57.2217 51.9757 56.7236 52.1967 56.1949 52.2984V75.6711L46.1657 67.2521L36.1364 75.6711V52.2984C35.6082 52.1966 35.1106 51.9756 34.6821 51.6525C34.2536 51.3295 33.9058 50.913 33.6653 50.4353C33.4249 49.9576 33.2985 49.4314 33.2957 48.8974C33.2929 48.3635 33.4138 47.836 33.6492 47.3558C33.8432 46.9511 33.9494 46.5104 33.9609 46.0624C33.9724 45.6143 33.8889 45.1689 33.7159 44.7549C33.5429 44.3409 33.2842 43.9675 32.9565 43.659C32.6289 43.3505 32.2396 43.1137 31.8138 42.9639C31.123 42.7191 30.5253 42.2682 30.1027 41.6732C29.6801 41.0782 29.4533 40.368 29.4533 39.6401C29.4533 38.9122 29.6801 38.2021 30.1027 37.607C30.5253 37.012 31.123 36.5612 31.8138 36.3163C32.2393 36.1661 32.6282 35.9291 32.9556 35.6205C33.2829 35.3119 33.5414 34.9386 33.7144 34.5247C33.8873 34.1109 33.9709 33.6656 33.9597 33.2177C33.9484 32.7698 33.8427 32.3292 33.6492 31.9244C33.3344 31.2655 33.2325 30.5262 33.3576 29.8077C33.4827 29.0891 33.8286 28.4266 34.3479 27.9106C34.8731 27.4014 35.5423 27.0632 36.2663 26.9411C36.9902 26.819 37.7344 26.9189 38.3997 27.2273C38.8074 27.4174 39.2507 27.5207 39.7011 27.5305C40.1514 27.5403 40.5989 27.4564 41.0146 27.2842C41.4303 27.1121 41.805 26.8554 42.1147 26.5308C42.4244 26.2062 42.6621 25.8209 42.8126 25.3996C43.0587 24.7129 43.5129 24.1187 44.113 23.6985C44.7131 23.2783 45.4295 23.0527 46.164 23.0527C46.8985 23.0527 47.6149 23.2783 48.215 23.6985C48.8151 24.1187 49.2694 24.7129 49.5155 25.3996Z" stroke="#DFA89C" stroke-width="2"/>
</svg>
