<svg width="73" height="73" viewBox="0 0 73 73" fill="none" xmlns="http://www.w3.org/2000/svg">
<path d="M53 3H19.6667C10.4619 3 3 10.4619 3 19.6667V53C3 62.2047 10.4619 69.6667 19.6667 69.6667H53C62.2047 69.6667 69.6667 62.2047 69.6667 53V19.6667C69.6667 10.4619 62.2047 3 53 3Z" stroke="white" stroke-width="5" stroke-linecap="round" stroke-linejoin="round"/>
<path d="M49.6665 34.233C50.0779 37.0072 49.604 39.8404 48.3124 42.3298C47.0207 44.8191 44.977 46.8377 42.4719 48.0986C39.9669 49.3595 37.128 49.7984 34.3591 49.3528C31.5903 48.9073 29.0324 47.6 27.0493 45.6169C25.0662 43.6338 23.7589 41.076 23.3134 38.3071C22.8678 35.5382 23.3067 32.6993 24.5676 30.1943C25.8285 27.6892 27.8471 25.6455 30.3365 24.3538C32.8258 23.0622 35.659 22.5883 38.4332 22.9997C41.2629 23.4193 43.8827 24.7379 45.9055 26.7607C47.9283 28.7835 49.2469 31.4033 49.6665 34.233Z" stroke="white" stroke-width="5" stroke-linecap="round" stroke-linejoin="round"/>
<path d="M54.6665 18H54.699" stroke="white" stroke-width="5" stroke-linecap="round" stroke-linejoin="round"/>
</svg>
